<mxfile host="app.diagrams.net" agent="Mozilla/5.0 (Windows NT 10.0; Win64; x64) AppleWebKit/537.36 (KHTML, like Gecko) Chrome/130.0.0.0 Safari/537.36" version="26.0.16">
  <diagram name="第 1 页" id="Gf509nXRiXFBj0Qs2QvW">
    <mxGraphModel dx="842" dy="523" grid="1" gridSize="10" guides="1" tooltips="1" connect="1" arrows="1" fold="1" page="1" pageScale="1" pageWidth="827" pageHeight="1169" background="#ffffff" math="0" shadow="1">
      <root>
        <mxCell id="0" />
        <mxCell id="1" parent="0" />
        <mxCell id="0tCoDvN9iO6Kp93jPh3K-21" value="" style="endArrow=none;html=1;rounded=0;" edge="1" parent="1">
          <mxGeometry width="50" height="50" relative="1" as="geometry">
            <mxPoint x="80" y="40" as="sourcePoint" />
            <mxPoint x="560" y="40" as="targetPoint" />
            <Array as="points">
              <mxPoint x="340" y="40" />
            </Array>
          </mxGeometry>
        </mxCell>
        <mxCell id="0tCoDvN9iO6Kp93jPh3K-22" value="" style="endArrow=none;html=1;rounded=0;" edge="1" parent="1">
          <mxGeometry width="50" height="50" relative="1" as="geometry">
            <mxPoint x="80" y="430.9195682920259" as="sourcePoint" />
            <mxPoint x="80" y="40" as="targetPoint" />
          </mxGeometry>
        </mxCell>
        <mxCell id="0tCoDvN9iO6Kp93jPh3K-23" value="应用层" style="rounded=0;whiteSpace=wrap;html=1;strokeColor=none;" vertex="1" parent="1">
          <mxGeometry x="270" y="40" width="80" height="40" as="geometry" />
        </mxCell>
        <mxCell id="0tCoDvN9iO6Kp93jPh3K-24" value="云平台" style="rounded=0;whiteSpace=wrap;html=1;strokeColor=none;" vertex="1" parent="1">
          <mxGeometry x="80" y="130" width="480" height="40" as="geometry" />
        </mxCell>
        <mxCell id="0tCoDvN9iO6Kp93jPh3K-25" value="边缘层" style="rounded=0;whiteSpace=wrap;html=1;strokeColor=none;" vertex="1" parent="1">
          <mxGeometry x="280" y="190" width="80" height="40" as="geometry" />
        </mxCell>
        <mxCell id="0tCoDvN9iO6Kp93jPh3K-26" value="网络层" style="rounded=0;whiteSpace=wrap;html=1;strokeColor=none;" vertex="1" parent="1">
          <mxGeometry x="280" y="290" width="80" height="40" as="geometry" />
        </mxCell>
        <mxCell id="0tCoDvN9iO6Kp93jPh3K-27" value="感知层" style="rounded=0;whiteSpace=wrap;html=1;strokeColor=none;" vertex="1" parent="1">
          <mxGeometry x="280" y="390" width="80" height="40" as="geometry" />
        </mxCell>
        <mxCell id="0tCoDvN9iO6Kp93jPh3K-29" value="" style="verticalLabelPosition=bottom;verticalAlign=top;html=1;shadow=0;dashed=0;strokeWidth=1;shape=mxgraph.android.phone2;strokeColor=#c0c0c0;labelBorderColor=#FF6666;" vertex="1" parent="1">
          <mxGeometry x="120" y="40" width="30" height="50" as="geometry" />
        </mxCell>
        <mxCell id="0tCoDvN9iO6Kp93jPh3K-30" value="手机" style="shape=partialRectangle;whiteSpace=wrap;html=1;top=0;left=0;fillColor=none;strokeColor=#E07A5F;fontColor=#393C56;" vertex="1" parent="1">
          <mxGeometry x="150" y="40" width="50" height="50" as="geometry" />
        </mxCell>
        <mxCell id="0tCoDvN9iO6Kp93jPh3K-34" value="Web" style="shape=partialRectangle;whiteSpace=wrap;html=1;top=0;left=0;fillColor=none;strokeColor=#E07A5F;fontColor=#393C56;" vertex="1" parent="1">
          <mxGeometry x="460" y="40" width="50" height="50" as="geometry" />
        </mxCell>
        <mxCell id="0tCoDvN9iO6Kp93jPh3K-35" value="" style="image;image=img/lib/atlassian/Trello_Logo.svg;html=1;strokeColor=#E07A5F;fontColor=#393C56;fillColor=#F2CC8F;" vertex="1" parent="1">
          <mxGeometry x="400" y="40" width="60" height="50" as="geometry" />
        </mxCell>
        <mxCell id="0tCoDvN9iO6Kp93jPh3K-36" value="" style="endArrow=none;html=1;rounded=0;strokeColor=#99CCFF;fontColor=#393C56;fillColor=#F2CC8F;strokeWidth=3;" edge="1" parent="1">
          <mxGeometry width="50" height="50" relative="1" as="geometry">
            <mxPoint x="80" y="110" as="sourcePoint" />
            <mxPoint x="560" y="110" as="targetPoint" />
            <Array as="points">
              <mxPoint x="320" y="110" />
            </Array>
          </mxGeometry>
        </mxCell>
        <mxCell id="0tCoDvN9iO6Kp93jPh3K-37" value="" style="shape=flexArrow;endArrow=classic;html=1;rounded=0;strokeColor=#E07A5F;fontColor=#393C56;fillColor=#F2CC8F;" edge="1" parent="1">
          <mxGeometry width="50" height="50" relative="1" as="geometry">
            <mxPoint x="170" y="130" as="sourcePoint" />
            <mxPoint x="170" y="90" as="targetPoint" />
            <Array as="points">
              <mxPoint x="170" y="110" />
            </Array>
          </mxGeometry>
        </mxCell>
        <mxCell id="0tCoDvN9iO6Kp93jPh3K-38" value="" style="shape=flexArrow;endArrow=classic;html=1;rounded=0;strokeColor=#E07A5F;fontColor=#393C56;fillColor=#F2CC8F;" edge="1" parent="1">
          <mxGeometry width="50" height="50" relative="1" as="geometry">
            <mxPoint x="480" y="130" as="sourcePoint" />
            <mxPoint x="480" y="90" as="targetPoint" />
            <Array as="points">
              <mxPoint x="480" y="110" />
            </Array>
          </mxGeometry>
        </mxCell>
        <mxCell id="0tCoDvN9iO6Kp93jPh3K-39" value="" style="endArrow=none;html=1;strokeWidth=2;rounded=0;strokeColor=light-dark(#2a2827, #b9624b);fontColor=#393C56;fillColor=#F2CC8F;" edge="1" parent="1">
          <mxGeometry width="50" height="50" relative="1" as="geometry">
            <mxPoint x="560" y="430" as="sourcePoint" />
            <mxPoint x="560" y="40" as="targetPoint" />
          </mxGeometry>
        </mxCell>
        <mxCell id="0tCoDvN9iO6Kp93jPh3K-40" value="" style="endArrow=none;html=1;rounded=0;strokeColor=#99CCFF;fontColor=#393C56;fillColor=#F2CC8F;strokeWidth=3;" edge="1" parent="1">
          <mxGeometry width="50" height="50" relative="1" as="geometry">
            <mxPoint x="80" y="170" as="sourcePoint" />
            <mxPoint x="560" y="170" as="targetPoint" />
            <Array as="points">
              <mxPoint x="320" y="170" />
            </Array>
          </mxGeometry>
        </mxCell>
        <mxCell id="0tCoDvN9iO6Kp93jPh3K-43" value="" style="endArrow=none;html=1;rounded=0;strokeColor=#99CCFF;fontColor=#393C56;fillColor=#F2CC8F;strokeWidth=3;" edge="1" parent="1">
          <mxGeometry width="50" height="50" relative="1" as="geometry">
            <mxPoint x="80" y="260" as="sourcePoint" />
            <mxPoint x="560" y="260" as="targetPoint" />
            <Array as="points">
              <mxPoint x="320" y="260" />
            </Array>
          </mxGeometry>
        </mxCell>
        <mxCell id="0tCoDvN9iO6Kp93jPh3K-44" value="" style="endArrow=none;html=1;rounded=0;strokeColor=#99CCFF;fontColor=#393C56;fillColor=#F2CC8F;strokeWidth=3;" edge="1" parent="1">
          <mxGeometry width="50" height="50" relative="1" as="geometry">
            <mxPoint x="80" y="360" as="sourcePoint" />
            <mxPoint x="560" y="360" as="targetPoint" />
            <Array as="points">
              <mxPoint x="320" y="360" />
            </Array>
          </mxGeometry>
        </mxCell>
        <mxCell id="0tCoDvN9iO6Kp93jPh3K-45" value="" style="endArrow=none;html=1;rounded=0;strokeColor=#99CCFF;fontColor=#393C56;fillColor=#F2CC8F;strokeWidth=3;" edge="1" parent="1">
          <mxGeometry width="50" height="50" relative="1" as="geometry">
            <mxPoint x="80" y="430" as="sourcePoint" />
            <mxPoint x="560" y="430" as="targetPoint" />
            <Array as="points">
              <mxPoint x="320" y="430" />
            </Array>
          </mxGeometry>
        </mxCell>
      </root>
    </mxGraphModel>
  </diagram>
</mxfile>
